<svg xmlns="http://www.w3.org/2000/svg" fill="none" viewBox="0 0 91 36" class="injected-svg" data-src="https://static.elfsight.com/icons/app-all-in-one-reviews-logos-airbnb-logo-multicolor.svg" xmlns:xlink="http://www.w3.org/1999/xlink"><path fill="#FF385C" fill-rule="evenodd" d="M47.96 11.035a1.83 1.83 0 0 1-1.848 1.822 1.832 1.832 0 0 1-1.848-1.822c0-1.009.796-1.821 1.848-1.821 1.052.027 1.848.84 1.848 1.821Zm-7.619 3.672v.448s-.881-1.12-2.757-1.12c-3.099 0-5.515 2.325-5.515 5.548 0 3.196 2.388 5.55 5.515 5.55 1.905 0 2.757-1.15 2.757-1.15v.478c0 .224.171.392.398.392h2.303V14.314h-2.303a.404.404 0 0 0-.398.393Zm0 6.755c-.426.616-1.28 1.149-2.303 1.149-1.819 0-3.211-1.122-3.211-3.028 0-1.905 1.392-3.026 3.212-3.026.995 0 1.904.56 2.302 1.149v3.756Zm4.407 3.39h2.729V14.314h-2.73v10.538Zm40.765-10.818c-1.876 0-2.757 1.121-2.757 1.121V9.241h-2.73v15.612h2.303a.404.404 0 0 0 .398-.392v-.477s.881 1.15 2.758 1.15c3.099 0 5.515-2.355 5.515-5.55 0-3.196-2.416-5.55-5.487-5.55Zm-.454 8.548c-1.053 0-1.877-.532-2.303-1.149v-3.755c.426-.561 1.335-1.149 2.303-1.149 1.819 0 3.212 1.12 3.212 3.027 0 1.906-1.393 3.026-3.212 3.026Zm-6.454-3.979v6.278h-2.729v-5.97c0-1.738-.569-2.438-2.104-2.438-.824 0-1.677.42-2.217 1.036v7.344h-2.73V14.314h2.161c.228 0 .398.197.398.393v.448c.797-.812 1.848-1.12 2.9-1.12 1.194 0 2.189.335 2.985 1.008.967.785 1.336 1.794 1.336 3.56Zm-16.403-4.569c-1.876 0-2.757 1.121-2.757 1.121V9.241h-2.73v15.612h2.303a.405.405 0 0 0 .398-.392v-.477s.882 1.15 2.758 1.15c3.099 0 5.515-2.355 5.515-5.55.029-3.196-2.388-5.55-5.487-5.55Zm-.455 8.548c-1.051 0-1.876-.532-2.302-1.149v-3.755c.426-.561 1.336-1.149 2.302-1.149 1.82 0 3.213 1.12 3.213 3.027 0 1.906-1.393 3.026-3.213 3.026Zm-7.39-8.548c.824 0 1.25.14 1.25.14v2.495s-2.274-.757-3.695.84v7.372h-2.73V14.314h2.303c.228 0 .398.197.398.393v.448c.512-.588 1.62-1.12 2.473-1.12ZM26.013 23.9c-.142-.337-.285-.7-.427-1.01-.227-.503-.455-.98-.654-1.428l-.028-.029a291.587 291.587 0 0 0-6.282-12.668l-.086-.168c-.227-.42-.454-.87-.682-1.317-.285-.505-.569-1.038-1.024-1.542A4.617 4.617 0 0 0 13.221 4c-1.42 0-2.7.617-3.638 1.682-.427.504-.74 1.037-1.024 1.542-.228.448-.455.896-.682 1.317l-.086.168c-2.188 4.204-4.32 8.464-6.282 12.668l-.028.056c-.2.449-.427.925-.654 1.43-.143.308-.285.644-.427 1.009-.37 1.037-.483 2.018-.34 3.027a5.97 5.97 0 0 0 3.694 4.652c.74.309 1.508.449 2.303.449a7.589 7.589 0 0 0 3.583-1.009c1.165-.645 2.273-1.57 3.524-2.915 1.25 1.345 2.388 2.27 3.525 2.915A7.585 7.585 0 0 0 20.271 32c.796 0 1.592-.14 2.303-.449A5.96 5.96 0 0 0 26.27 26.9c.227-.982.114-1.962-.256-3Zm-12.821 1.457c-1.536-1.906-2.53-3.699-2.871-5.213-.142-.644-.171-1.205-.086-1.71a2.7 2.7 0 0 1 .455-1.176c.54-.758 1.45-1.234 2.502-1.234 1.052 0 1.99.449 2.501 1.234.228.335.398.729.455 1.176.085.505.057 1.093-.085 1.71-.341 1.486-1.336 3.28-2.871 5.213Zm11.342 1.318c-.199 1.457-1.193 2.718-2.587 3.279-.682.28-1.42.364-2.16.28a5.63 5.63 0 0 1-2.16-.729c-1.024-.56-2.047-1.429-3.241-2.718 1.876-2.27 3.013-4.345 3.44-6.194a6.939 6.939 0 0 0 .142-2.383 4.525 4.525 0 0 0-.768-1.906c-.88-1.261-2.36-1.99-4.008-1.99-1.649 0-3.127.758-4.009 1.99a4.504 4.504 0 0 0-.767 1.907 5.728 5.728 0 0 0 .142 2.382c.426 1.85 1.592 3.952 3.44 6.222-1.166 1.289-2.217 2.158-3.24 2.719-.74.42-1.45.645-2.161.728a4.617 4.617 0 0 1-2.16-.28c-1.394-.56-2.39-1.822-2.588-3.28a4.585 4.585 0 0 1 .256-2.186c.086-.28.227-.56.37-.896.199-.449.426-.925.653-1.402l.029-.056A305.11 305.11 0 0 1 9.412 9.578l.085-.168c.228-.421.455-.869.683-1.29.227-.448.483-.869.795-1.233.597-.672 1.393-1.037 2.274-1.037.882 0 1.678.365 2.275 1.037.312.364.568.785.796 1.233.227.421.454.869.682 1.29l.085.168a369.507 369.507 0 0 1 6.226 12.613v.027c.227.449.426.953.654 1.402.142.336.284.616.37.896.227.729.312 1.43.198 2.159Z" clip-rule="evenodd"></path></svg>